G04 DipTrace 3.3.1.3*
G04 Through.gbr*
%MOIN*%
G04 #@! TF.FileFunction,Plated,1,2,PTH,Drill*
G04 #@! TF.Part,Single*
G04 Drill Symbols*
G04 D=0.019121 - Cross*
G04 D=0.027559 - X*
G04 D=0.035433 - Y*
G04 D=0.055118 - T*
%ADD10C,0.00787*%
%FSLAX26Y26*%
G04*
G70*
G90*
G75*
G01*
X2370100Y1417300D2*
D10*
X2393700Y1393700D1*
X2417300Y1417300D1*
X2393700Y1393700D2*
Y1370100D1*
X2470100Y1417300D2*
X2493700Y1393700D1*
X2517300Y1417300D1*
X2493700Y1393700D2*
Y1370100D1*
X2370100Y1317300D2*
X2393700Y1293700D1*
X2417300Y1317300D1*
X2393700Y1293700D2*
Y1270100D1*
X2470100Y1317300D2*
X2493700Y1293700D1*
X2517300Y1317300D1*
X2493700Y1293700D2*
Y1270100D1*
X2370100Y1217300D2*
X2393700Y1193700D1*
X2417300Y1217300D1*
X2393700Y1193700D2*
Y1170100D1*
X2470100Y1217300D2*
X2493700Y1193700D1*
X2517300Y1217300D1*
X2493700Y1193700D2*
Y1170100D1*
X2370100Y1117300D2*
X2393700Y1093700D1*
X2417300Y1117300D1*
X2393700Y1093700D2*
Y1070100D1*
X2470100Y1117300D2*
X2493700Y1093700D1*
X2517300Y1117300D1*
X2493700Y1093700D2*
Y1070100D1*
X2370100Y1017300D2*
X2393700Y993700D1*
X2417300Y1017300D1*
X2393700Y993700D2*
Y970100D1*
X2470100Y1017300D2*
X2493700Y993700D1*
X2517300Y1017300D1*
X2493700Y993700D2*
Y970100D1*
X2370100Y917300D2*
X2393700Y893700D1*
X2417300Y917300D1*
X2393700Y893700D2*
Y870100D1*
X2470100Y917300D2*
X2493700Y893700D1*
X2517300Y917300D1*
X2493700Y893700D2*
Y870100D1*
X2370100Y817300D2*
X2393700Y793700D1*
X2417300Y817300D1*
X2393700Y793700D2*
Y770100D1*
X2470100Y817300D2*
X2493700Y793700D1*
X2517300Y817300D1*
X2493700Y793700D2*
Y770100D1*
X2370100Y717300D2*
X2393700Y693700D1*
X2417300Y717300D1*
X2393700Y693700D2*
Y670100D1*
X2470100Y717300D2*
X2493700Y693700D1*
X2517300Y717300D1*
X2493700Y693700D2*
Y670100D1*
X2370100Y617300D2*
X2393700Y593700D1*
X2417300Y617300D1*
X2393700Y593700D2*
Y570100D1*
X2470100Y617300D2*
X2493700Y593700D1*
X2517300Y617300D1*
X2493700Y593700D2*
Y570100D1*
X2370100Y517300D2*
X2393700Y493700D1*
X2417300Y517300D1*
X2393700Y493700D2*
Y470100D1*
X2470100Y517300D2*
X2493700Y493700D1*
X2517300Y517300D1*
X2493700Y493700D2*
Y470100D1*
X2370100Y2817300D2*
X2393700Y2793700D1*
X2417300Y2817300D1*
X2393700Y2793700D2*
Y2770100D1*
X2470100Y2817300D2*
X2493700Y2793700D1*
X2517300Y2817300D1*
X2493700Y2793700D2*
Y2770100D1*
X2370100Y2717300D2*
X2393700Y2693700D1*
X2417300Y2717300D1*
X2393700Y2693700D2*
Y2670100D1*
X2470100Y2717300D2*
X2493700Y2693700D1*
X2517300Y2717300D1*
X2493700Y2693700D2*
Y2670100D1*
X2370100Y2617300D2*
X2393700Y2593700D1*
X2417300Y2617300D1*
X2393700Y2593700D2*
Y2570100D1*
X2470100Y2617300D2*
X2493700Y2593700D1*
X2517300Y2617300D1*
X2493700Y2593700D2*
Y2570100D1*
X2370100Y2517300D2*
X2393700Y2493700D1*
X2417300Y2517300D1*
X2393700Y2493700D2*
Y2470100D1*
X2470100Y2517300D2*
X2493700Y2493700D1*
X2517300Y2517300D1*
X2493700Y2493700D2*
Y2470100D1*
X2370100Y2417300D2*
X2393700Y2393700D1*
X2417300Y2417300D1*
X2393700Y2393700D2*
Y2370100D1*
X2470100Y2417300D2*
X2493700Y2393700D1*
X2517300Y2417300D1*
X2493700Y2393700D2*
Y2370100D1*
X2370100Y2317300D2*
X2393700Y2293700D1*
X2417300Y2317300D1*
X2393700Y2293700D2*
Y2270100D1*
X2470100Y2317300D2*
X2493700Y2293700D1*
X2517300Y2317300D1*
X2493700Y2293700D2*
Y2270100D1*
X2370100Y2217300D2*
X2393700Y2193700D1*
X2417300Y2217300D1*
X2393700Y2193700D2*
Y2170100D1*
X2470100Y2217300D2*
X2493700Y2193700D1*
X2517300Y2217300D1*
X2493700Y2193700D2*
Y2170100D1*
X2370100Y2117300D2*
X2393700Y2093700D1*
X2417300Y2117300D1*
X2393700Y2093700D2*
Y2070100D1*
X2470100Y2117300D2*
X2493700Y2093700D1*
X2517300Y2117300D1*
X2493700Y2093700D2*
Y2070100D1*
X2370100Y2017300D2*
X2393700Y1993700D1*
X2417300Y2017300D1*
X2393700Y1993700D2*
Y1970100D1*
X2470100Y2017300D2*
X2493700Y1993700D1*
X2517300Y2017300D1*
X2493700Y1993700D2*
Y1970100D1*
X2370100Y1917300D2*
X2393700Y1893700D1*
X2417300Y1917300D1*
X2393700Y1893700D2*
Y1870100D1*
X2470100Y1917300D2*
X2493700Y1893700D1*
X2517300Y1917300D1*
X2493700Y1893700D2*
Y1870100D1*
X2470100Y3417300D2*
X2493700Y3393700D1*
X2517300Y3417300D1*
X2493700Y3393700D2*
Y3370100D1*
X2470100Y3317300D2*
X2493700Y3293700D1*
X2517300Y3317300D1*
X2493700Y3293700D2*
Y3270100D1*
X2370100Y3417300D2*
X2393700Y3393700D1*
X2417300Y3417300D1*
X2393700Y3393700D2*
Y3370100D1*
X2370100Y3317300D2*
X2393700Y3293700D1*
X2417300Y3317300D1*
X2393700Y3293700D2*
Y3270100D1*
X2120100Y2967300D2*
X2143700Y2943700D1*
X2167300Y2967300D1*
X2143700Y2943700D2*
Y2920100D1*
X2020100Y2967300D2*
X2043700Y2943700D1*
X2067300Y2967300D1*
X2043700Y2943700D2*
Y2920100D1*
X1920100Y2967300D2*
X1943700Y2943700D1*
X1967300Y2967300D1*
X1943700Y2943700D2*
Y2920100D1*
X1820100Y2967300D2*
X1843700Y2943700D1*
X1867300Y2967300D1*
X1843700Y2943700D2*
Y2920100D1*
X1720100Y2967300D2*
X1743700Y2943700D1*
X1767300Y2967300D1*
X1743700Y2943700D2*
Y2920100D1*
X2070100Y3393700D2*
X2117300D1*
X2093700D2*
Y3370100D1*
X2207895Y3393700D2*
X2255095D1*
X2231495D2*
Y3370100D1*
X1470100Y1667300D2*
X1493700Y1643700D1*
X1517300Y1667300D1*
X1493700Y1643700D2*
Y1620100D1*
X1470100Y1767300D2*
X1493700Y1743700D1*
X1517300Y1767300D1*
X1493700Y1743700D2*
Y1720100D1*
X1470100Y1867300D2*
X1493700Y1843700D1*
X1517300Y1867300D1*
X1493700Y1843700D2*
Y1820100D1*
X1470100Y1967300D2*
X1493700Y1943700D1*
X1517300Y1967300D1*
X1493700Y1943700D2*
Y1920100D1*
X1470100Y2067300D2*
X1493700Y2043700D1*
X1517300Y2067300D1*
X1493700Y2043700D2*
Y2020100D1*
X1470100Y2167300D2*
X1493700Y2143700D1*
X1517300Y2167300D1*
X1493700Y2143700D2*
Y2120100D1*
X1470100Y2267300D2*
X1493700Y2243700D1*
X1517300Y2267300D1*
X1493700Y2243700D2*
Y2220100D1*
X1470100Y2367300D2*
X1493700Y2343700D1*
X1517300Y2367300D1*
X1493700Y2343700D2*
Y2320100D1*
X1470100Y2467300D2*
X1493700Y2443700D1*
X1517300Y2467300D1*
X1493700Y2443700D2*
Y2420100D1*
X1470100Y2567300D2*
X1493700Y2543700D1*
X1517300Y2567300D1*
X1493700Y2543700D2*
Y2520100D1*
X1470100Y2667300D2*
X1493700Y2643700D1*
X1517300Y2667300D1*
X1493700Y2643700D2*
Y2620100D1*
X1470100Y2767300D2*
X1493700Y2743700D1*
X1517300Y2767300D1*
X1493700Y2743700D2*
Y2720100D1*
X1470100Y2867300D2*
X1493700Y2843700D1*
X1517300Y2867300D1*
X1493700Y2843700D2*
Y2820100D1*
X1470100Y2967300D2*
X1493700Y2943700D1*
X1517300Y2967300D1*
X1493700Y2943700D2*
Y2920100D1*
X770100Y3393700D2*
X817300D1*
X793700D2*
Y3370100D1*
X907895Y3393700D2*
X955095D1*
X931495D2*
Y3370100D1*
X1170100Y3393700D2*
X1217300D1*
X1193700D2*
Y3370100D1*
X1307895Y3393700D2*
X1355095D1*
X1331495D2*
Y3370100D1*
X1870100Y1667300D2*
X1917300Y1620100D1*
Y1667300D2*
X1870100Y1620100D1*
X1920100Y1667300D2*
X1967300Y1620100D1*
Y1667300D2*
X1920100Y1620100D1*
X1970100Y1667300D2*
X2017300Y1620100D1*
Y1667300D2*
X1970100Y1620100D1*
X2020100Y517300D2*
X2043700Y493700D1*
X2067300Y517300D1*
X2043700Y493700D2*
Y470100D1*
X1920100Y517300D2*
X1943700Y493700D1*
X1967300Y517300D1*
X1943700Y493700D2*
Y470100D1*
X1820100Y517300D2*
X1843700Y493700D1*
X1867300Y517300D1*
X1843700Y493700D2*
Y470100D1*
X1720100Y517300D2*
X1743700Y493700D1*
X1767300Y517300D1*
X1743700Y493700D2*
Y470100D1*
X1620100Y517300D2*
X1643700Y493700D1*
X1667300Y517300D1*
X1643700Y493700D2*
Y470100D1*
X1520100Y517300D2*
X1543700Y493700D1*
X1567300Y517300D1*
X1543700Y493700D2*
Y470100D1*
X1420100Y517300D2*
X1443700Y493700D1*
X1467300Y517300D1*
X1443700Y493700D2*
Y470100D1*
X1320100Y517300D2*
X1343700Y493700D1*
X1367300Y517300D1*
X1343700Y493700D2*
Y470100D1*
X1220100Y517300D2*
X1243700Y493700D1*
X1267300Y517300D1*
X1243700Y493700D2*
Y470100D1*
X1120100Y517300D2*
X1143700Y493700D1*
X1167300Y517300D1*
X1143700Y493700D2*
Y470100D1*
X1020100Y517300D2*
X1043700Y493700D1*
X1067300Y517300D1*
X1043700Y493700D2*
Y470100D1*
X920100Y517300D2*
X943700Y493700D1*
X967300Y517300D1*
X943700Y493700D2*
Y470100D1*
X820100Y517300D2*
X843700Y493700D1*
X867300Y517300D1*
X843700Y493700D2*
Y470100D1*
X720100Y517300D2*
X743700Y493700D1*
X767300Y517300D1*
X743700Y493700D2*
Y470100D1*
X620100Y517300D2*
X643700Y493700D1*
X667300Y517300D1*
X643700Y493700D2*
Y470100D1*
X2020100Y1417300D2*
X2043700Y1393700D1*
X2067300Y1417300D1*
X2043700Y1393700D2*
Y1370100D1*
X1920100Y1417300D2*
X1943700Y1393700D1*
X1967300Y1417300D1*
X1943700Y1393700D2*
Y1370100D1*
X1820100Y1417300D2*
X1843700Y1393700D1*
X1867300Y1417300D1*
X1843700Y1393700D2*
Y1370100D1*
X1720100Y1417300D2*
X1743700Y1393700D1*
X1767300Y1417300D1*
X1743700Y1393700D2*
Y1370100D1*
X1620100Y1417300D2*
X1643700Y1393700D1*
X1667300Y1417300D1*
X1643700Y1393700D2*
Y1370100D1*
X1520100Y1417300D2*
X1543700Y1393700D1*
X1567300Y1417300D1*
X1543700Y1393700D2*
Y1370100D1*
X1420100Y1417300D2*
X1443700Y1393700D1*
X1467300Y1417300D1*
X1443700Y1393700D2*
Y1370100D1*
X1320100Y1417300D2*
X1343700Y1393700D1*
X1367300Y1417300D1*
X1343700Y1393700D2*
Y1370100D1*
X1220100Y1417300D2*
X1243700Y1393700D1*
X1267300Y1417300D1*
X1243700Y1393700D2*
Y1370100D1*
X1120100Y1417300D2*
X1143700Y1393700D1*
X1167300Y1417300D1*
X1143700Y1393700D2*
Y1370100D1*
X1020100Y1417300D2*
X1043700Y1393700D1*
X1067300Y1417300D1*
X1043700Y1393700D2*
Y1370100D1*
X920100Y1417300D2*
X943700Y1393700D1*
X967300Y1417300D1*
X943700Y1393700D2*
Y1370100D1*
X820100Y1417300D2*
X843700Y1393700D1*
X867300Y1417300D1*
X843700Y1393700D2*
Y1370100D1*
X720100Y1417300D2*
X743700Y1393700D1*
X767300Y1417300D1*
X743700Y1393700D2*
Y1370100D1*
X620100Y1417300D2*
X643700Y1393700D1*
X667300Y1417300D1*
X643700Y1393700D2*
Y1370100D1*
X1520100Y3393700D2*
X1567300D1*
X1543700D2*
Y3370100D1*
X1657895Y3393700D2*
X1705095D1*
X1681495D2*
Y3370100D1*
X1795691Y3393700D2*
X1842891D1*
X1819291D2*
Y3370100D1*
X1493700Y3167300D2*
Y3120100D1*
X1470100Y3143700D2*
X1517300D1*
X1843700Y3167300D2*
Y3120100D1*
X1820100Y3143700D2*
X1867300D1*
M02*
