G04 DipTrace 3.3.1.3*
G04 TopSilk.gbr*
%MOIN*%
G04 #@! TF.FileFunction,Legend,Top*
G04 #@! TF.Part,Single*
%ADD10C,0.009843*%
%ADD38C,0.00772*%
%FSLAX26Y26*%
G04*
G70*
G90*
G75*
G01*
G04 TopSilk*
%LPD*%
X2343700Y443700D2*
D10*
X2543700D1*
X2343700Y1443600D2*
Y1368600D1*
Y1443600D2*
X2543700D1*
Y1368600D1*
Y443700D1*
X2343700Y1368600D2*
Y443700D1*
Y1843800D2*
X2543700D1*
X2343700Y2843700D2*
Y2768700D1*
Y2843700D2*
X2543700D1*
Y2768700D1*
Y1843800D1*
X2343700Y2768700D2*
Y1843800D1*
X2543700Y3243600D2*
X2343700D1*
X2543700Y3443700D2*
Y3243600D1*
X2343700Y3443700D2*
Y3243600D1*
X2543700Y3443700D2*
X2343700D1*
X1693700Y2993700D2*
Y2893700D1*
X2193700Y2993700D2*
X1693700D1*
X2193700Y2893700D2*
X1693700D1*
X2193700Y2993700D2*
Y2893700D1*
X2018896Y3232283D2*
X2314163D1*
Y3555117D1*
X2018896D1*
Y3232283D1*
Y3279513D2*
X2314163D1*
G36*
X2077949D2*
X2109425D1*
Y3248037D1*
X2077949D1*
Y3279513D1*
G37*
G36*
X2215780D2*
X2247255D1*
Y3248037D1*
X2215780D1*
Y3279513D1*
G37*
X1543700Y2993700D2*
D10*
X1443700D1*
X1543700Y1593700D2*
Y2993700D1*
Y1593700D2*
X1443700D1*
Y1669300D1*
Y2993700D1*
X718896Y3232283D2*
X1014163D1*
Y3555117D1*
X718896D1*
Y3232283D1*
Y3279513D2*
X1014163D1*
G36*
X777949D2*
X809425D1*
Y3248037D1*
X777949D1*
Y3279513D1*
G37*
G36*
X915780D2*
X947255D1*
Y3248037D1*
X915780D1*
Y3279513D1*
G37*
X1118896Y3232283D2*
D10*
X1414163D1*
Y3555117D1*
X1118896D1*
Y3232283D1*
Y3279513D2*
X1414163D1*
G36*
X1177949D2*
X1209425D1*
Y3248037D1*
X1177949D1*
Y3279513D1*
G37*
G36*
X1315780D2*
X1347255D1*
Y3248037D1*
X1315780D1*
Y3279513D1*
G37*
X1868080Y1590558D2*
D10*
G02X2019320Y1590558I75620J66569D01*
G01*
X1868080D1*
X593700Y543700D2*
Y443700D1*
X2093700Y543700D2*
Y443700D1*
X2018700D1*
X593700D1*
X2093700Y543700D2*
X593700D1*
Y1443700D2*
Y1343700D1*
X2093700Y1443700D2*
Y1343700D1*
X2018700D1*
X593700D1*
X2093700Y1443700D2*
X593700D1*
X1468898Y3232283D2*
X1901949D1*
Y3555117D1*
X1468898D1*
Y3232283D1*
Y3279513D2*
X1901949D1*
G36*
X1527966D2*
X1559405D1*
Y3248037D1*
X1527966D1*
Y3279513D1*
G37*
G36*
X1665806D2*
X1697245D1*
Y3248037D1*
X1665806D1*
Y3279513D1*
G37*
G36*
X1803516D2*
X1834956D1*
Y3248037D1*
X1803516D1*
Y3279513D1*
G37*
X2270477Y1708626D2*
D38*
Y1677565D1*
X2320717D1*
Y1708626D1*
X2294409Y1677565D2*
Y1696688D1*
X2270477Y1724066D2*
X2320717Y1757559D1*
X2270477D2*
X2320717Y1724066D1*
X2270477Y1789745D2*
X2320717D1*
X2270477Y1772998D2*
Y1806492D1*
X2329007Y1821931D2*
Y1867362D1*
X2270477Y1882802D2*
X2320717D1*
X2270477Y1916295D2*
X2320717D1*
X2294409Y1882802D2*
Y1916295D1*
X2270477Y1962796D2*
Y1931734D1*
X2320717D1*
Y1962796D1*
X2294409Y1931734D2*
Y1950857D1*
X2320717Y2016537D2*
X2270477Y1997358D1*
X2320717Y1978235D1*
X2303970Y1985420D2*
Y2009352D1*
X2270477Y2031976D2*
X2320717D1*
Y2048723D1*
X2318285Y2055908D1*
X2313532Y2060716D1*
X2308723Y2063093D1*
X2301594Y2065469D1*
X2289600D1*
X2282415Y2063093D1*
X2277662Y2060716D1*
X2272854Y2055908D1*
X2270477Y2048723D1*
Y2031976D1*
Y2111970D2*
Y2080908D1*
X2320717D1*
Y2111970D1*
X2294409Y2080908D2*
Y2100032D1*
Y2127409D2*
Y2148909D1*
X2291977Y2156094D1*
X2289600Y2158526D1*
X2284847Y2160903D1*
X2280039D1*
X2275285Y2158526D1*
X2272854Y2156094D1*
X2270477Y2148909D1*
Y2127409D1*
X2320717D1*
X2294409Y2144156D2*
X2320717Y2160903D1*
X2277662Y2209835D2*
X2272854Y2205082D1*
X2270477Y2197897D1*
Y2188335D1*
X2272854Y2181150D1*
X2277662Y2176342D1*
X2282415D1*
X2287224Y2178774D1*
X2289600Y2181150D1*
X2291977Y2185903D1*
X2296785Y2200274D1*
X2299162Y2205082D1*
X2301594Y2207459D1*
X2306347Y2209835D1*
X2313532D1*
X2318285Y2205082D1*
X2320717Y2197897D1*
Y2188335D1*
X2318285Y2181150D1*
X2313532Y2176342D1*
X1941949Y3066923D2*
Y3028677D1*
X1939573Y3021492D1*
X1937141Y3019115D1*
X1932388Y3016683D1*
X1927579D1*
X1922826Y3019115D1*
X1920450Y3021492D1*
X1918018Y3028677D1*
Y3033430D1*
X1957389Y3057306D2*
X1962197Y3059738D1*
X1969382Y3066868D1*
Y3016683D1*
X1971981Y3208121D2*
Y3229676D1*
X1969605Y3236806D1*
X1967173Y3239238D1*
X1962420Y3241615D1*
X1955235D1*
X1950482Y3239238D1*
X1948050Y3236806D1*
X1945673Y3229676D1*
Y3208121D1*
X1995913D1*
X1945673Y3271424D2*
X1948050Y3266615D1*
X1952858Y3261862D1*
X1957611Y3259430D1*
X1964796Y3257054D1*
X1976790D1*
X1983920Y3259430D1*
X1988728Y3261862D1*
X1993481Y3266615D1*
X1995913Y3271424D1*
Y3280985D1*
X1993481Y3285739D1*
X1988728Y3290547D1*
X1983920Y3292924D1*
X1976790Y3295300D1*
X1964796D1*
X1957611Y3292924D1*
X1952858Y3290547D1*
X1948050Y3285739D1*
X1945673Y3280986D1*
Y3271424D1*
Y3310740D2*
X1995913Y3322733D1*
X1945673Y3334671D1*
X1995913Y3346609D1*
X1945673Y3358603D1*
Y3405104D2*
Y3374042D1*
X1995913D1*
Y3405104D1*
X1969605Y3374042D2*
Y3393165D1*
Y3420543D2*
Y3442043D1*
X1967173Y3449228D1*
X1964796Y3451660D1*
X1960043Y3454036D1*
X1955235D1*
X1950482Y3451660D1*
X1948050Y3449228D1*
X1945673Y3442043D1*
Y3420543D1*
X1995913D1*
X1969605Y3437290D2*
X1995913Y3454036D1*
X2004204Y3469475D2*
Y3514907D1*
X1945673Y3530346D2*
X1995913D1*
X1945673Y3579279D2*
X1995913D1*
X1945673Y3545786D1*
X1995913D1*
X1377662Y2004434D2*
X1372854Y1999681D1*
X1370477Y1992496D1*
Y1982934D1*
X1372854Y1975749D1*
X1377662Y1970940D1*
X1382415D1*
X1387224Y1973372D1*
X1389600Y1975749D1*
X1391977Y1980502D1*
X1396785Y1994872D1*
X1399162Y1999681D1*
X1401594Y2002057D1*
X1406347Y2004434D1*
X1413532D1*
X1418285Y1999680D1*
X1420717Y1992495D1*
Y1982934D1*
X1418285Y1975749D1*
X1413532Y1970940D1*
X1370477Y2036620D2*
X1420717D1*
X1370477Y2019873D2*
Y2053366D1*
Y2099867D2*
Y2068806D1*
X1420717Y2068805D1*
Y2099867D1*
X1394409Y2068805D2*
Y2087929D1*
X1396785Y2115306D2*
Y2136861D1*
X1394409Y2143991D1*
X1391977Y2146423D1*
X1387224Y2148800D1*
X1380039D1*
X1375285Y2146423D1*
X1372854Y2143991D1*
X1370477Y2136861D1*
Y2115306D1*
X1420717D1*
X1396785Y2164239D2*
Y2185794D1*
X1394409Y2192924D1*
X1391977Y2195356D1*
X1387224Y2197732D1*
X1380039D1*
X1375285Y2195356D1*
X1372854Y2192924D1*
X1370477Y2185794D1*
Y2164239D1*
X1420717D1*
X1370477Y2244233D2*
Y2213171D1*
X1420717D1*
Y2244233D1*
X1394409Y2213171D2*
Y2232295D1*
Y2259672D2*
Y2281172D1*
X1391977Y2288357D1*
X1389600Y2290789D1*
X1384847Y2293165D1*
X1380039D1*
X1375285Y2290789D1*
X1372854Y2288357D1*
X1370477Y2281172D1*
Y2259672D1*
X1420717D1*
X1394409Y2276419D2*
X1420717Y2293165D1*
X1429007Y2308605D2*
Y2354036D1*
X1370477Y2369475D2*
X1420717D1*
Y2386222D1*
X1418285Y2393407D1*
X1413532Y2398216D1*
X1408723Y2400592D1*
X1401594Y2402969D1*
X1389600D1*
X1382415Y2400592D1*
X1377662Y2398216D1*
X1372854Y2393407D1*
X1370477Y2386222D1*
Y2369475D1*
X1394409Y2418408D2*
Y2439908D1*
X1391977Y2447093D1*
X1389600Y2449525D1*
X1384847Y2451901D1*
X1380039D1*
X1375285Y2449525D1*
X1372854Y2447093D1*
X1370477Y2439908D1*
Y2418408D1*
X1420717D1*
X1394409Y2435155D2*
X1420717Y2451901D1*
X1370477Y2467341D2*
X1420717D1*
X1370477Y2482780D2*
X1420717Y2501903D1*
X1370477Y2521026D1*
Y2567527D2*
Y2536466D1*
X1420717D1*
Y2567527D1*
X1394409Y2536466D2*
Y2555589D1*
Y2582966D2*
Y2604466D1*
X1391977Y2611651D1*
X1389600Y2614083D1*
X1384847Y2616460D1*
X1380039D1*
X1375285Y2614083D1*
X1372854Y2611651D1*
X1370477Y2604466D1*
Y2582966D1*
X1420717D1*
X1394409Y2599713D2*
X1420717Y2616460D1*
X652858Y3252337D2*
X648050Y3247584D1*
X645673Y3240399D1*
Y3230837D1*
X648050Y3223652D1*
X652858Y3218844D1*
X657611D1*
X662420Y3221275D1*
X664796Y3223652D1*
X667173Y3228405D1*
X671981Y3242775D1*
X674358Y3247584D1*
X676790Y3249960D1*
X681543Y3252337D1*
X688728D1*
X693481Y3247584D1*
X695913Y3240399D1*
Y3230837D1*
X693481Y3223652D1*
X688728Y3218844D1*
X645673Y3267776D2*
X695913Y3279770D1*
X645673Y3291708D1*
X695913Y3303646D1*
X645673Y3315639D1*
Y3331079D2*
X695913D1*
X645673Y3363265D2*
X695913D1*
X645673Y3346518D2*
Y3380011D1*
X657611Y3431320D2*
X652858Y3428944D1*
X648050Y3424135D1*
X645673Y3419382D1*
Y3409821D1*
X648050Y3405012D1*
X652858Y3400259D1*
X657611Y3397827D1*
X664796Y3395451D1*
X676790D1*
X683920Y3397827D1*
X688728Y3400259D1*
X693481Y3405012D1*
X695913Y3409821D1*
Y3419382D1*
X693481Y3424135D1*
X688728Y3428944D1*
X683920Y3431320D1*
X645673Y3446760D2*
X695913D1*
X645673Y3480253D2*
X695913D1*
X669605Y3446760D2*
Y3480253D1*
X704204Y3495692D2*
Y3541124D1*
X655290Y3556563D2*
X652858Y3561372D1*
X645728Y3568557D1*
X695913D1*
X1052858Y3241587D2*
X1048050Y3236834D1*
X1045673Y3229649D1*
Y3220087D1*
X1048050Y3212902D1*
X1052858Y3208094D1*
X1057611D1*
X1062420Y3210526D1*
X1064796Y3212902D1*
X1067173Y3217655D1*
X1071981Y3232025D1*
X1074358Y3236834D1*
X1076790Y3239210D1*
X1081543Y3241587D1*
X1088728D1*
X1093481Y3236834D1*
X1095913Y3229649D1*
Y3220087D1*
X1093481Y3212902D1*
X1088728Y3208094D1*
X1045673Y3257026D2*
X1095913Y3269020D1*
X1045673Y3280958D1*
X1095913Y3292896D1*
X1045673Y3304890D1*
Y3320329D2*
X1095913D1*
X1045673Y3352515D2*
X1095913D1*
X1045673Y3335768D2*
Y3369261D1*
X1057611Y3420571D2*
X1052858Y3418194D1*
X1048050Y3413385D1*
X1045673Y3408632D1*
Y3399071D1*
X1048050Y3394262D1*
X1052858Y3389509D1*
X1057611Y3387077D1*
X1064796Y3384701D1*
X1076790D1*
X1083920Y3387077D1*
X1088728Y3389509D1*
X1093481Y3394262D1*
X1095913Y3399071D1*
Y3408632D1*
X1093481Y3413385D1*
X1088728Y3418194D1*
X1083920Y3420571D1*
X1045673Y3436010D2*
X1095913D1*
X1045673Y3469503D2*
X1095913D1*
X1069605Y3436010D2*
Y3469503D1*
X1104204Y3484942D2*
Y3530374D1*
X1057667Y3548245D2*
X1055290D1*
X1050482Y3550622D1*
X1048105Y3552998D1*
X1045728Y3557807D1*
Y3567368D1*
X1048105Y3572121D1*
X1050482Y3574498D1*
X1055290Y3576930D1*
X1060043D1*
X1064852Y3574498D1*
X1071981Y3569745D1*
X1095913Y3545813D1*
Y3579306D1*
X1713997Y1831097D2*
Y1780857D1*
X1697250Y1831097D2*
X1730744D1*
X1784429Y1780857D2*
Y1831097D1*
X1765306Y1780857D1*
X1746183Y1831097D1*
Y1780857D1*
X1799869Y1804789D2*
X1821424D1*
X1828554Y1807165D1*
X1830985Y1809597D1*
X1833362Y1814350D1*
Y1821535D1*
X1830985Y1826289D1*
X1828554Y1828720D1*
X1821424Y1831097D1*
X1799869D1*
Y1780857D1*
X1848801Y1772567D2*
X1894233D1*
X1943165Y1823912D2*
X1938412Y1828720D1*
X1931227Y1831097D1*
X1921666D1*
X1914481Y1828720D1*
X1909672Y1823912D1*
Y1819159D1*
X1912104Y1814350D1*
X1914481Y1811974D1*
X1919234Y1809597D1*
X1933604Y1804789D1*
X1938412Y1802412D1*
X1940789Y1799980D1*
X1943165Y1795227D1*
Y1788042D1*
X1938412Y1783289D1*
X1931227Y1780857D1*
X1921666D1*
X1914481Y1783289D1*
X1909672Y1788042D1*
X1989666Y1831097D2*
X1958605D1*
Y1780857D1*
X1989666D1*
X1958605Y1807165D2*
X1977728D1*
X2038599Y1831097D2*
Y1780857D1*
X2005105Y1831097D1*
Y1780857D1*
X2087531Y1823912D2*
X2082778Y1828720D1*
X2075593Y1831097D1*
X2066031D1*
X2058846Y1828720D1*
X2054038Y1823912D1*
Y1819159D1*
X2056470Y1814350D1*
X2058846Y1811974D1*
X2063600Y1809597D1*
X2077970Y1804789D1*
X2082778Y1802412D1*
X2085155Y1799980D1*
X2087531Y1795227D1*
Y1788042D1*
X2082778Y1783289D1*
X2075593Y1780857D1*
X2066031D1*
X2058846Y1783289D1*
X2054038Y1788042D1*
X2117341Y1831097D2*
X2112532Y1828720D1*
X2107779Y1823912D1*
X2105347Y1819159D1*
X2102971Y1811974D1*
Y1799980D1*
X2105347Y1792850D1*
X2107779Y1788042D1*
X2112532Y1783289D1*
X2117341Y1780857D1*
X2126902D1*
X2131655Y1783289D1*
X2136464Y1788042D1*
X2138840Y1792850D1*
X2141217Y1799980D1*
Y1811974D1*
X2138840Y1819159D1*
X2136464Y1823912D1*
X2131655Y1828720D1*
X2126902Y1831097D1*
X2117341D1*
X2156656Y1807165D2*
X2178156D1*
X2185341Y1809597D1*
X2187773Y1811974D1*
X2190150Y1816727D1*
Y1821535D1*
X2187773Y1826289D1*
X2185341Y1828720D1*
X2178156Y1831097D1*
X2156656D1*
Y1780857D1*
X2173403Y1807165D2*
X2190150Y1780857D1*
X1281051Y1516923D2*
X1293045Y1466683D1*
X1304983Y1516923D1*
X1316921Y1466683D1*
X1328914Y1516923D1*
X1344354D2*
Y1466683D1*
X1390910Y1516923D2*
X1359793D1*
Y1466683D1*
Y1492991D2*
X1378916D1*
X1406349Y1516923D2*
Y1466683D1*
X1426445Y3215324D2*
X1438439Y3165084D1*
X1450377Y3215324D1*
X1462315Y3165084D1*
X1474309Y3215324D1*
X1489748D2*
Y3165084D1*
X1538681Y3215324D2*
Y3165084D1*
X1505187Y3215324D1*
Y3165084D1*
X1554120Y3215324D2*
Y3165084D1*
X1570867D1*
X1578052Y3167516D1*
X1582860Y3172269D1*
X1585237Y3177077D1*
X1587613Y3184207D1*
Y3196201D1*
X1585237Y3203386D1*
X1582860Y3208139D1*
X1578052Y3212947D1*
X1570867Y3215324D1*
X1554120D1*
X1603052Y3156794D2*
X1648484D1*
X1697417Y3208139D2*
X1692663Y3212947D1*
X1685478Y3215324D1*
X1675917D1*
X1668732Y3212947D1*
X1663923Y3208139D1*
Y3203386D1*
X1666355Y3198577D1*
X1668732Y3196201D1*
X1673485Y3193824D1*
X1687855Y3189016D1*
X1692663Y3186639D1*
X1695040Y3184207D1*
X1697417Y3179454D1*
Y3172269D1*
X1692663Y3167516D1*
X1685478Y3165084D1*
X1675917D1*
X1668732Y3167516D1*
X1663923Y3172269D1*
X1743917Y3215324D2*
X1712856D1*
Y3165084D1*
X1743917D1*
X1712856Y3191392D2*
X1731979D1*
X1792850Y3215324D2*
Y3165084D1*
X1759357Y3215324D1*
Y3165084D1*
X1841782Y3208139D2*
X1837029Y3212947D1*
X1829844Y3215324D1*
X1820283D1*
X1813098Y3212947D1*
X1808289Y3208139D1*
Y3203386D1*
X1810721Y3198577D1*
X1813098Y3196201D1*
X1817851Y3193824D1*
X1832221Y3189016D1*
X1837029Y3186639D1*
X1839406Y3184207D1*
X1841782Y3179454D1*
Y3172269D1*
X1837029Y3167516D1*
X1829844Y3165084D1*
X1820283D1*
X1813098Y3167516D1*
X1808289Y3172269D1*
X1871592Y3215324D2*
X1866783Y3212947D1*
X1862030Y3208139D1*
X1859598Y3203386D1*
X1857222Y3196201D1*
Y3184207D1*
X1859598Y3177077D1*
X1862030Y3172269D1*
X1866783Y3167516D1*
X1871592Y3165084D1*
X1881153D1*
X1885907Y3167516D1*
X1890715Y3172269D1*
X1893092Y3177077D1*
X1895468Y3184207D1*
Y3196201D1*
X1893092Y3203386D1*
X1890715Y3208139D1*
X1885907Y3212947D1*
X1881153Y3215324D1*
X1871592D1*
X1910907Y3191392D2*
X1932407D1*
X1939592Y3193824D1*
X1942024Y3196201D1*
X1944401Y3200954D1*
Y3205762D1*
X1942024Y3210516D1*
X1939592Y3212947D1*
X1932407Y3215324D1*
X1910907D1*
Y3165084D1*
X1927654Y3191392D2*
X1944401Y3165084D1*
X643700Y2480601D2*
Y2430361D1*
X665255D1*
X672440Y2432793D1*
X674817Y2435170D1*
X677193Y2439923D1*
Y2447108D1*
X674817Y2451916D1*
X672440Y2454293D1*
X665255Y2456669D1*
X672440Y2459101D1*
X674817Y2461478D1*
X677193Y2466231D1*
Y2471039D1*
X674817Y2475793D1*
X672440Y2478225D1*
X665255Y2480601D1*
X643700D1*
Y2456669D2*
X665255D1*
X721317Y2463854D2*
Y2430361D1*
Y2456669D2*
X716564Y2461478D1*
X711756Y2463854D1*
X704626D1*
X699818Y2461478D1*
X695064Y2456669D1*
X692633Y2449484D1*
Y2444731D1*
X695064Y2437546D1*
X699818Y2432793D1*
X704626Y2430361D1*
X711756D1*
X716564Y2432793D1*
X721317Y2437546D1*
X763065Y2456669D2*
X760688Y2461478D1*
X753503Y2463854D1*
X746318D1*
X739133Y2461478D1*
X736757Y2456669D1*
X739133Y2451916D1*
X743942Y2449484D1*
X755880Y2447108D1*
X760688Y2444731D1*
X763065Y2439923D1*
Y2437546D1*
X760688Y2432793D1*
X753503Y2430361D1*
X746318D1*
X739133Y2432793D1*
X736757Y2437546D1*
X778504Y2449484D2*
X807189D1*
Y2454293D1*
X804813Y2459101D1*
X802436Y2461478D1*
X797628Y2463854D1*
X790442D1*
X785689Y2461478D1*
X780881Y2456669D1*
X778504Y2449484D1*
Y2444731D1*
X780881Y2437546D1*
X785689Y2432793D1*
X790442Y2430361D1*
X797628D1*
X802436Y2432793D1*
X807189Y2437546D1*
X856122Y2473416D2*
X851369Y2478225D1*
X844184Y2480601D1*
X834622D1*
X827437Y2478225D1*
X822628Y2473416D1*
Y2468663D1*
X825060Y2463854D1*
X827437Y2461478D1*
X832190Y2459101D1*
X846560Y2454293D1*
X851369Y2451916D1*
X853745Y2449484D1*
X856122Y2444731D1*
Y2437546D1*
X851369Y2432793D1*
X844184Y2430361D1*
X834622D1*
X827437Y2432793D1*
X822628Y2437546D1*
X878746Y2480601D2*
Y2439923D1*
X881123Y2432793D1*
X885931Y2430361D1*
X890684D1*
X871561Y2463854D2*
X888308D1*
X934808D2*
Y2430361D1*
Y2456669D2*
X930055Y2461478D1*
X925247Y2463854D1*
X918117D1*
X913309Y2461478D1*
X908555Y2456669D1*
X906123Y2449484D1*
Y2444731D1*
X908555Y2437546D1*
X913309Y2432793D1*
X918117Y2430361D1*
X925247D1*
X930055Y2432793D1*
X934808Y2437546D1*
X957433Y2480601D2*
Y2439923D1*
X959809Y2432793D1*
X964618Y2430361D1*
X969371D1*
X950248Y2463854D2*
X966994D1*
X984810Y2480601D2*
X987187Y2478225D1*
X989619Y2480601D1*
X987187Y2483033D1*
X984810Y2480601D1*
X987187Y2463854D2*
Y2430361D1*
X1016996Y2463854D2*
X1012243Y2461478D1*
X1007434Y2456669D1*
X1005058Y2449484D1*
Y2444731D1*
X1007434Y2437546D1*
X1012243Y2432793D1*
X1016996Y2430361D1*
X1024181D1*
X1028990Y2432793D1*
X1033743Y2437546D1*
X1036175Y2444731D1*
Y2449484D1*
X1033743Y2456669D1*
X1028990Y2461478D1*
X1024181Y2463854D1*
X1016996D1*
X1051614D2*
Y2430361D1*
Y2454293D2*
X1058799Y2461478D1*
X1063607Y2463854D1*
X1070737D1*
X1075546Y2461478D1*
X1077922Y2454293D1*
Y2430361D1*
X1141962Y2480601D2*
X1161086Y2430361D1*
X1180209Y2480601D1*
X1195648Y2470984D2*
X1200457Y2473416D1*
X1207642Y2480546D1*
Y2430361D1*
X1225457Y2435170D2*
X1223081Y2432738D1*
X1225457Y2430361D1*
X1227889Y2432738D1*
X1225457Y2435170D1*
X1257699Y2480546D2*
X1250514Y2478169D1*
X1245705Y2470984D1*
X1243329Y2459046D1*
Y2451861D1*
X1245705Y2439923D1*
X1250514Y2432738D1*
X1257699Y2430361D1*
X1262452D1*
X1269637Y2432738D1*
X1274390Y2439923D1*
X1276822Y2451861D1*
Y2459046D1*
X1274390Y2470984D1*
X1269637Y2478169D1*
X1262452Y2480546D1*
X1257699D1*
X1274390Y2470984D2*
X1245705Y2439923D1*
X653262Y2380656D2*
X655693Y2378280D1*
X658070Y2380656D1*
X655693Y2383033D1*
X653262Y2380656D1*
X655693Y2363910D2*
Y2323231D1*
X653262Y2316046D1*
X648508Y2313670D1*
X643700D1*
X673509Y2380601D2*
Y2330361D1*
X717689Y2356669D2*
X712880Y2361478D1*
X708072Y2363854D1*
X700942D1*
X696134Y2361478D1*
X691380Y2356669D1*
X688949Y2349484D1*
Y2344731D1*
X691380Y2337546D1*
X696134Y2332793D1*
X700942Y2330361D1*
X708072D1*
X712880Y2332793D1*
X717689Y2337546D1*
X742690Y2380656D2*
X745121Y2378280D1*
X747498Y2380656D1*
X745121Y2383033D1*
X742690Y2380656D1*
X745121Y2363910D2*
Y2323231D1*
X742690Y2316046D1*
X737936Y2313670D1*
X733128D1*
X762937Y2380601D2*
Y2330361D1*
X807117Y2356669D2*
X802308Y2361478D1*
X797500Y2363854D1*
X790370D1*
X785562Y2361478D1*
X780808Y2356669D1*
X778377Y2349484D1*
Y2344731D1*
X780808Y2337546D1*
X785562Y2332793D1*
X790370Y2330361D1*
X797500D1*
X802308Y2332793D1*
X807117Y2337546D1*
X832118Y2380656D2*
X834549Y2378280D1*
X836926Y2380656D1*
X834549Y2383033D1*
X832118Y2380656D1*
X834549Y2363910D2*
Y2323231D1*
X832118Y2316046D1*
X827364Y2313670D1*
X822556D1*
X852365Y2380601D2*
Y2330361D1*
X896545Y2356669D2*
X891736Y2361478D1*
X886928Y2363854D1*
X879798D1*
X874990Y2361478D1*
X870236Y2356669D1*
X867805Y2349484D1*
Y2344731D1*
X870236Y2337546D1*
X874990Y2332793D1*
X879798Y2330361D1*
X886928D1*
X891736Y2332793D1*
X896545Y2337546D1*
X921546Y2380656D2*
X923977Y2378280D1*
X926354Y2380656D1*
X923977Y2383033D1*
X921546Y2380656D1*
X923977Y2363910D2*
Y2323231D1*
X921546Y2316046D1*
X916792Y2313670D1*
X911984D1*
X941793Y2380601D2*
Y2330361D1*
X985973Y2356669D2*
X981164Y2361478D1*
X976356Y2363854D1*
X969226D1*
X964418Y2361478D1*
X959664Y2356669D1*
X957232Y2349484D1*
Y2344731D1*
X959664Y2337546D1*
X964418Y2332793D1*
X969226Y2330361D1*
X976356D1*
X981164Y2332793D1*
X985973Y2337546D1*
M02*
